<svg version="1.0" xmlns="http://www.w3.org/2000/svg"
 width="1254.000000pt" height="1254.000000pt" viewBox="0 0 1254.000000 1254.000000"
 preserveAspectRatio="xMidYMid meet">
<g transform="translate(0.000000,1254.000000) scale(0.100000,-0.100000)"
fill="#000000" stroke="none">
<path d="M6215 10496 c-45 -14 -92 -41 -915 -519 -1604 -932 -2301 -1347
-2329 -1385 -11 -16 -25 -48 -31 -73 -7 -31 -10 -643 -8 -2114 l3 -2070 21
-40 c22 -43 50 -61 765 -483 440 -259 449 -263 512 -265 48 -1 67 7 212 82
206 107 325 173 325 180 0 3 -51 35 -113 70 -95 54 -835 494 -1063 631 -39 24
-81 59 -95 78 l-24 36 -3 1779 c-1 1200 1 1792 8 1818 6 21 23 51 39 66 16 15
224 143 462 283 239 140 481 282 539 316 389 229 1450 847 1619 943 131 74
147 72 381 -64 341 -196 1201 -699 2125 -1243 377 -221 385 -227 414 -286 l25
-49 0 -1761 c-1 -1326 -4 -1770 -13 -1797 -22 -67 -2 -54 -876 -571 -181 -107
-352 -207 -378 -222 -27 -15 -47 -29 -45 -30 7 -6 378 -206 426 -230 57 -29
135 -36 184 -17 44 17 1101 637 1157 679 18 13 42 43 52 66 18 40 19 111 19
2129 0 2273 4 2123 -56 2179 -48 45 -2979 1765 -3179 1865 -54 28 -112 35
-160 19z"/>
<path d="M6150 9155 c0 -5 7 -50 15 -100 31 -187 14 -384 -50 -575 -84 -251
-268 -551 -713 -1160 -473 -647 -585 -838 -677 -1155 -89 -310 -91 -696 -4
-1015 21 -78 99 -284 104 -278 2 2 -12 45 -30 95 -49 130 -96 315 -100 393 -3
66 -3 67 19 57 18 -9 22 -18 19 -49 -2 -24 1 -38 9 -38 9 0 9 -3 0 -12 -7 -7
-12 -21 -12 -33 0 -16 2 -17 10 -5 7 11 8 9 6 -11 -1 -13 -6 -31 -10 -38 -5
-7 -1 -18 10 -26 24 -18 34 -19 34 -1 0 7 7 19 15 26 8 7 12 17 8 23 -3 6 -1
7 5 3 7 -4 12 -2 12 3 0 6 6 10 13 8 6 -1 11 4 9 11 -2 10 2 10 18 2 16 -9 18
-8 14 5 -8 19 15 48 31 41 7 -2 19 4 28 15 25 28 37 23 35 -16 -1 -19 -5 -32
-9 -30 -11 8 -4 -39 10 -61 11 -16 12 -16 7 -1 -3 11 -1 17 7 16 28 -3 48 2
42 11 -4 6 -11 8 -16 5 -5 -3 -6 1 -3 10 4 8 15 20 26 26 17 9 18 8 9 -9 -8
-15 -7 -23 2 -30 19 -16 43 24 26 44 -16 19 0 18 22 -2 16 -15 17 -14 12 5 -7
28 5 26 29 -4 19 -25 19 -25 40 -5 20 18 22 18 35 2 13 -16 14 -15 9 6 -4 21
-2 23 20 18 14 -4 24 -2 24 4 0 6 5 8 10 5 6 -3 11 0 12 7 4 37 17 68 28 68 4
0 6 -13 5 -30 -3 -33 6 -38 25 -15 10 13 14 13 28 -1 11 -12 12 -18 4 -23 -9
-5 -8 -12 4 -27 8 -10 13 -13 9 -6 -11 21 4 52 22 45 12 -5 14 -3 8 7 -6 9 -4
11 4 6 7 -5 10 -14 7 -22 -7 -19 18 -18 34 1 10 12 10 15 -3 15 -8 0 -17 6
-20 13 -3 8 1 14 9 14 7 0 11 -4 8 -9 -3 -4 4 -8 15 -8 12 0 21 6 21 12 0 7 7
2 16 -10 18 -25 31 -29 31 -7 0 8 -5 15 -10 15 -6 0 -8 2 -5 5 3 3 18 0 32 -7
26 -11 27 -15 22 -62 -7 -61 -5 -57 28 62 65 233 177 415 456 742 203 237 309
365 392 476 219 289 361 581 419 858 29 133 31 394 5 536 -48 265 -169 524
-369 790 -70 93 -356 395 -357 375z m-1473 -3617 c-3 -7 -5 -2 -5 12 0 14 2
19 5 13 2 -7 2 -19 0 -25z m555 -166 c9 4 14 -2 16 -15 1 -14 -2 -17 -7 -9
-10 17 -74 4 -67 -14 7 -18 -20 -39 -30 -23 -4 7 -2 15 4 17 17 5 15 22 -3 22
-8 0 -15 5 -15 10 0 13 13 13 26 0 7 -7 16 -4 29 10 13 14 21 17 26 9 4 -7 13
-10 21 -7z m-206 -31 c0 -11 -3 -18 -7 -15 -4 2 -10 -3 -13 -12 -3 -8 -10 -12
-16 -9 -15 9 -12 25 6 25 8 0 13 4 10 9 -4 5 0 12 6 14 7 3 13 6 13 6 1 1 1
-8 1 -18z m39 -61 c-3 -5 -11 -10 -16 -10 -6 0 -7 5 -4 10 3 6 11 10 16 10 6
0 7 -4 4 -10z"/>
<path d="M5070 3607 c-36 -13 -451 -236 -484 -260 -15 -11 -7 -18 71 -61 48
-27 264 -149 478 -271 215 -122 521 -296 680 -387 160 -91 314 -177 343 -192
68 -34 125 -42 179 -23 23 8 295 158 605 335 309 176 666 378 793 450 126 71
230 133 232 138 1 5 -108 69 -244 143 -280 152 -300 158 -385 119 -29 -14
-224 -121 -433 -238 -209 -117 -425 -237 -479 -268 -61 -34 -116 -57 -142 -60
-49 -5 -27 -17 -574 291 -569 320 -555 314 -640 284z"/>
</g>
</svg>
